<?xml version="1.0" encoding="utf-8"?>
<!-- Generator: Adobe Illustrator 16.0.0, SVG Export Plug-In . SVG Version: 6.00 Build 0)  -->
<!DOCTYPE svg PUBLIC "-//W3C//DTD SVG 1.1//EN" "http://www.w3.org/Graphics/SVG/1.1/DTD/svg11.dtd">
<svg version="1.1" id="Layer_1" xmlns="http://www.w3.org/2000/svg" xmlns:xlink="http://www.w3.org/1999/xlink" x="0px" y="0px"
	 width="30px" height="21.212px" viewBox="405.945 287.034 30 21.212" enable-background="new 405.945 287.034 30 21.212"
	 xml:space="preserve">
<g>
	<path fill-rule="evenodd" clip-rule="evenodd" d="M429.365,297.73c-0.041,0.214-0.073,0.428-0.122,0.64
		c-0.431,1.853-2.032,3.224-3.93,3.365c-0.172,0.013-0.344,0.02-0.515,0.02c-2.243,0.001-4.486-0.002-6.729,0.004
		c-0.134,0.001-0.279,0.031-0.401,0.088c-1.388,0.638-2.772,1.283-4.158,1.925c-0.046,0.021-0.097,0.035-0.145,0.052
		c0-2.719,0-5.437,0-8.156c0.01-0.05,0.018-0.1,0.03-0.149c0.086-0.358,0.137-0.729,0.265-1.071c0.607-1.619,2.194-2.843,4.2-2.832
		c2.337,0.014,4.674,0.002,7.011,0.005c0.229,0,0.46,0.007,0.685,0.044c1.834,0.302,3.043,1.345,3.623,3.107
		c0.096,0.288,0.126,0.597,0.188,0.896C429.365,296.355,429.365,297.042,429.365,297.73z M414.341,302.302
		c0.078-0.035,0.13-0.056,0.182-0.079c0.99-0.458,1.979-0.921,2.972-1.376c0.1-0.045,0.218-0.071,0.328-0.071
		c2.338-0.004,4.676-0.003,7.015-0.006c0.218,0,0.438-0.011,0.653-0.04c1.51-0.197,2.778-1.536,2.872-3.058
		c0.037-0.591,0.043-1.188,0.017-1.779c-0.085-1.86-1.545-3.281-3.38-3.289c-2.442-0.009-4.885-0.007-7.327,0.002
		c-0.858,0.003-1.605,0.322-2.232,0.906c-0.741,0.69-1.098,1.552-1.099,2.562c-0.001,2.016,0,4.031,0,6.046
		C414.341,302.171,414.341,302.222,414.341,302.302z"/>
	<path fill-rule="evenodd" clip-rule="evenodd" d="M418.077,297.795c-0.516,0-0.933-0.417-0.93-0.932
		c0.002-0.515,0.421-0.927,0.939-0.923c0.511,0.004,0.921,0.414,0.924,0.924C419.013,297.379,418.594,297.796,418.077,297.795z"/>
	<path fill-rule="evenodd" clip-rule="evenodd" d="M424.656,295.94c0.517,0.003,0.931,0.422,0.925,0.938
		c-0.005,0.514-0.426,0.922-0.944,0.917c-0.507-0.004-0.921-0.423-0.919-0.93C423.719,296.351,424.138,295.938,424.656,295.94z"/>
	<path fill-rule="evenodd" clip-rule="evenodd" d="M421.359,297.795c-0.515-0.001-0.933-0.422-0.928-0.936
		c0.005-0.514,0.427-0.924,0.944-0.919c0.509,0.006,0.921,0.42,0.921,0.927C422.296,297.382,421.876,297.797,421.359,297.795z"/>
</g>
</svg>
