<?xml version="1.0" encoding="utf-8"?>
<!-- Generator: Adobe Illustrator 16.0.0, SVG Export Plug-In . SVG Version: 6.00 Build 0)  -->
<!DOCTYPE svg PUBLIC "-//W3C//DTD SVG 1.1//EN" "http://www.w3.org/Graphics/SVG/1.1/DTD/svg11.dtd">
<svg version="1.1" id="Layer_1" xmlns="http://www.w3.org/2000/svg" xmlns:xlink="http://www.w3.org/1999/xlink" x="0px" y="0px"
	 width="30px" height="21.212px" viewBox="405.945 287.034 30 21.212" enable-background="new 405.945 287.034 30 21.212"
	 xml:space="preserve">
<g>
	<path fill-rule="evenodd" clip-rule="evenodd" d="M429.563,296.37c-0.063,0.106-0.107,0.23-0.19,0.316
		c-0.179,0.183-0.406,0.232-0.647,0.144c-0.247-0.092-0.383-0.279-0.408-0.542c-0.008-0.077-0.004-0.155-0.004-0.233
		c0-1.089,0-2.178,0-3.266c-0.001-0.831-0.525-1.355-1.356-1.356c-0.229,0-0.457,0-0.708,0c0,0.221,0.008,0.432-0.001,0.643
		c-0.021,0.489-0.545,0.768-0.954,0.51c-0.19-0.12-0.286-0.3-0.291-0.522c-0.006-0.203-0.002-0.405-0.002-0.619
		c-0.948,0-1.887,0-2.844,0c0,0.161,0,0.321,0,0.48c0,0.469-0.235,0.755-0.621,0.758c-0.392,0.003-0.629-0.286-0.629-0.765
		c0-0.155,0-0.311,0-0.475c-0.938,0-1.862,0-2.813,0c0,0.2,0.004,0.406-0.001,0.611c-0.006,0.283-0.173,0.512-0.425,0.595
		c-0.402,0.133-0.806-0.149-0.821-0.58c-0.008-0.207-0.001-0.414-0.001-0.651c-0.369,0.018-0.728-0.004-1.07,0.061
		c-0.559,0.105-0.929,0.592-0.96,1.178c-0.003,0.042-0.002,0.084-0.002,0.125c0,3.188,0,6.375-0.001,9.563
		c0,0.541,0.211,0.969,0.709,1.202c0.19,0.09,0.42,0.131,0.633,0.132c1.536,0.011,3.072,0.007,4.608,0.005
		c0.202,0,0.383,0.043,0.527,0.19c0.301,0.305,0.208,0.813-0.18,0.999c-0.046,0.021-0.094,0.041-0.141,0.062
		c-1.729,0-3.459,0-5.188,0c-0.023-0.01-0.046-0.023-0.069-0.027c-0.879-0.142-1.521-0.613-1.903-1.412
		c-0.116-0.243-0.166-0.519-0.246-0.779c0-3.438,0-6.875,0-10.313c0.01-0.028,0.024-0.056,0.029-0.085
		c0.123-0.764,0.516-1.349,1.167-1.762c0.465-0.295,0.979-0.39,1.521-0.373c0.185,0.006,0.37,0.001,0.564,0.001
		c0-0.171,0.008-0.321-0.002-0.471c-0.026-0.387,0.129-0.652,0.502-0.779c0.083,0,0.166,0,0.25,0
		c0.372,0.127,0.527,0.392,0.501,0.779c-0.01,0.153-0.001,0.308-0.001,0.46c0.947,0,1.875,0,2.813,0c0-0.16,0.008-0.311-0.002-0.46
		c-0.025-0.387,0.129-0.651,0.502-0.779c0.083,0,0.166,0,0.25,0c0.372,0.127,0.527,0.392,0.501,0.779
		c-0.01,0.153-0.001,0.308-0.001,0.46c0.958,0,1.896,0,2.844,0c0-0.16,0.008-0.311-0.002-0.46c-0.026-0.387,0.129-0.651,0.502-0.779
		c0.083,0,0.166,0,0.25,0c0.372,0.127,0.527,0.393,0.501,0.779c-0.01,0.153-0.001,0.308-0.001,0.474
		c0.311,0,0.603-0.014,0.892,0.002c0.986,0.056,1.716,0.526,2.16,1.405c0.126,0.25,0.176,0.538,0.261,0.809
		C429.563,293.724,429.563,295.048,429.563,296.37z"/>
	<path fill-rule="evenodd" clip-rule="evenodd" d="M425.469,304.932c-0.361-0.09-0.735-0.148-1.083-0.277
		c-1.612-0.594-2.636-2.391-2.334-4.082c0.267-1.499,1.123-2.535,2.563-3.004c1.475-0.481,2.796-0.122,3.894,0.977
		c0.596,0.597,0.925,1.335,1.025,2.174c0.005,0.04,0.019,0.079,0.028,0.119c0,0.209,0,0.417,0,0.625
		c-0.011,0.051-0.023,0.101-0.031,0.151c-0.233,1.494-1.049,2.53-2.458,3.078c-0.311,0.121-0.652,0.162-0.979,0.239
		C425.885,304.932,425.677,304.932,425.469,304.932z M428.312,301.148c-0.002-1.394-1.146-2.532-2.537-2.527
		c-1.388,0.004-2.521,1.139-2.524,2.526c-0.003,1.392,1.137,2.534,2.53,2.535C427.173,303.682,428.314,302.541,428.312,301.148z"/>
	<path fill-rule="evenodd" clip-rule="evenodd" d="M418.093,295.501c-0.003,0.343-0.29,0.623-0.634,0.618
		c-0.343-0.005-0.621-0.294-0.614-0.637c0.007-0.338,0.288-0.611,0.625-0.611C417.814,294.872,418.096,295.157,418.093,295.501z"/>
	<path fill-rule="evenodd" clip-rule="evenodd" d="M420.812,295.488c0.004,0.344-0.277,0.629-0.621,0.631s-0.628-0.281-0.627-0.625
		c0-0.337,0.275-0.617,0.613-0.623C420.52,294.865,420.808,295.144,420.812,295.488z"/>
	<path fill-rule="evenodd" clip-rule="evenodd" d="M423.531,295.493c0.001,0.344-0.282,0.627-0.626,0.626s-0.625-0.286-0.622-0.629
		c0.003-0.338,0.28-0.615,0.617-0.619C423.243,294.868,423.529,295.149,423.531,295.493z"/>
	<path fill-rule="evenodd" clip-rule="evenodd" d="M426.249,295.498c-0.002,0.344-0.288,0.625-0.631,0.621
		c-0.344-0.004-0.623-0.291-0.617-0.635c0.006-0.337,0.285-0.612,0.623-0.613C425.968,294.871,426.25,295.154,426.249,295.498z"/>
	<path fill-rule="evenodd" clip-rule="evenodd" d="M417.473,298.838c-0.344,0.002-0.628-0.28-0.628-0.623
		c0-0.344,0.284-0.627,0.627-0.625c0.338,0.002,0.616,0.278,0.621,0.616C418.097,298.55,417.817,298.836,417.473,298.838z"/>
	<path fill-rule="evenodd" clip-rule="evenodd" d="M420.194,297.59c0.344,0.004,0.623,0.291,0.618,0.635
		c-0.006,0.343-0.295,0.621-0.639,0.613c-0.337-0.008-0.61-0.289-0.609-0.626C419.565,297.868,419.85,297.587,420.194,297.59z"/>
	<path fill-rule="evenodd" clip-rule="evenodd" d="M417.472,301.556c-0.344,0.002-0.628-0.281-0.627-0.625
		c0-0.344,0.285-0.625,0.629-0.623c0.337,0.003,0.615,0.28,0.619,0.617C418.097,301.269,417.816,301.554,417.472,301.556z"/>
	<path fill-rule="evenodd" clip-rule="evenodd" d="M420.182,300.308c0.343-0.003,0.628,0.278,0.63,0.622
		c0.001,0.344-0.282,0.627-0.626,0.626c-0.338-0.001-0.617-0.276-0.622-0.614C419.558,300.599,419.838,300.312,420.182,300.308z"/>
	<path fill-rule="evenodd" clip-rule="evenodd" d="M426.405,300.529c0.123,0,0.223-0.006,0.32,0.001
		c0.337,0.022,0.592,0.299,0.587,0.631c-0.005,0.325-0.258,0.599-0.59,0.61c-0.327,0.013-0.655,0.013-0.982,0
		c-0.319-0.014-0.57-0.267-0.578-0.587c-0.012-0.447-0.012-0.895-0.001-1.342c0.009-0.339,0.288-0.596,0.62-0.597
		c0.332,0,0.606,0.257,0.622,0.596C426.412,300.063,426.405,300.286,426.405,300.529z"/>
</g>
</svg>
