<?xml version="1.0" encoding="utf-8"?>
<!-- Generator: Adobe Illustrator 16.0.0, SVG Export Plug-In . SVG Version: 6.00 Build 0)  -->
<!DOCTYPE svg PUBLIC "-//W3C//DTD SVG 1.1//EN" "http://www.w3.org/Graphics/SVG/1.1/DTD/svg11.dtd">
<svg version="1.1" id="Layer_1" xmlns="http://www.w3.org/2000/svg" xmlns:xlink="http://www.w3.org/1999/xlink" x="0px" y="0px"
	 width="30px" height="21.212px" viewBox="405.945 287.034 30 21.212" enable-background="new 405.945 287.034 30 21.212"
	 xml:space="preserve">
<g>
	<path fill-rule="evenodd" clip-rule="evenodd" d="M414.156,292.942c0,3.883,0,7.744,0,11.617c3.866,0,7.73,0,11.622,0
		c0-0.068,0-0.139,0-0.21c0-2.067-0.001-4.134,0.002-6.201c0-0.118,0.009-0.241,0.043-0.353c0.104-0.338,0.441-0.534,0.804-0.483
		c0.32,0.045,0.582,0.331,0.605,0.665c0.004,0.057,0.002,0.113,0.002,0.17c0.001,2.346,0.001,4.69,0,7.036
		c0,0.557-0.282,0.844-0.835,0.844c-4.287,0-8.575,0-12.863,0c-0.554,0-0.843-0.287-0.843-0.838c0-4.288,0-8.576,0-12.864
		c0-0.556,0.283-0.84,0.837-0.84c2.374,0,4.748,0,7.122,0c0.344,0,0.609,0.176,0.72,0.47c0.106,0.283,0.024,0.607-0.206,0.807
		c-0.164,0.142-0.359,0.18-0.57,0.18c-1.119-0.001-2.238-0.001-3.356-0.001c-0.954,0-1.908,0-2.862,0
		C414.309,292.942,414.242,292.942,414.156,292.942z"/>
	<path fill-rule="evenodd" clip-rule="evenodd" d="M421.66,298.752c-0.313,0-0.625,0.003-0.937-0.001
		c-0.46-0.006-0.751-0.298-0.754-0.761c-0.003-0.619,0.002-1.237-0.002-1.856c-0.001-0.236,0.08-0.428,0.246-0.594
		c1.755-1.753,3.509-3.508,5.264-5.261c0.332-0.332,0.753-0.336,1.086-0.007c0.634,0.627,1.264,1.257,1.891,1.891
		c0.322,0.325,0.321,0.749-0.004,1.074c-1.757,1.76-3.517,3.517-5.274,5.275c-0.16,0.161-0.349,0.244-0.578,0.241
		C422.284,298.749,421.972,298.752,421.66,298.752z M426.013,291.807c0.001-0.001-0.005,0.001-0.009,0.005
		c-1.506,1.504-3.013,3.009-4.518,4.514c-0.03,0.03-0.065,0.074-0.066,0.112c-0.006,0.282-0.003,0.564-0.003,0.865
		c0.247,0,0.473-0.008,0.698,0.003c0.147,0.007,0.252-0.039,0.356-0.145c1.442-1.448,2.889-2.893,4.335-4.337
		c0.04-0.04,0.092-0.068,0.129-0.095C426.615,292.409,426.319,292.113,426.013,291.807z"/>
</g>
</svg>
