<?xml version="1.0" encoding="utf-8"?>
<!-- Generator: Adobe Illustrator 16.0.0, SVG Export Plug-In . SVG Version: 6.00 Build 0)  -->
<!DOCTYPE svg PUBLIC "-//W3C//DTD SVG 1.1//EN" "http://www.w3.org/Graphics/SVG/1.1/DTD/svg11.dtd">
<svg version="1.1" id="Layer_1" xmlns="http://www.w3.org/2000/svg" xmlns:xlink="http://www.w3.org/1999/xlink" x="0px" y="0px"
	 width="30px" height="21.212px" viewBox="405.945 287.034 30 21.212" enable-background="new 405.945 287.034 30 21.212"
	 xml:space="preserve">
<g>
	<path fill-rule="evenodd" clip-rule="evenodd" d="M426.665,295.306c0.164,0.01,0.308,0.006,0.446,0.029
		c1.087,0.176,1.72,1.194,1.39,2.246c-0.387,1.236-0.783,2.47-1.176,3.705c-0.147,0.464-0.291,0.93-0.443,1.393
		c-0.249,0.754-0.878,1.213-1.668,1.213c-3.614,0.002-7.229,0.002-10.843,0c-1.021-0.001-1.782-0.768-1.782-1.786
		c-0.001-3.376-0.001-6.752,0-10.128c0-1.074,0.73-1.803,1.806-1.805c0.995-0.001,1.989,0.003,2.983-0.002
		c0.466-0.002,0.873,0.142,1.237,0.43c0.701,0.553,1.409,1.097,2.11,1.65c0.182,0.144,0.374,0.212,0.607,0.211
		c1.172-0.006,2.346-0.003,3.519-0.002c1.086,0.001,1.813,0.729,1.813,1.816C426.666,294.614,426.665,294.952,426.665,295.306z
		 M414.012,302.673c0.167,0.028,0.31,0.073,0.452,0.073c3.572,0.004,7.144,0.003,10.716,0.003c0.369,0,0.55-0.13,0.66-0.478
		c0.524-1.647,1.049-3.296,1.571-4.944c0.159-0.5-0.111-0.866-0.639-0.866c-3.43,0-6.859,0-10.289,0
		c-0.367,0-0.541,0.128-0.654,0.482c-0.255,0.798-0.509,1.597-0.762,2.396C414.722,300.431,414.376,301.524,414.012,302.673z
		 M425.505,295.317c0.009-0.037,0.015-0.048,0.015-0.059c0.001-0.333,0.003-0.667,0.002-1c-0.001-0.436-0.224-0.656-0.661-0.656
		c-1.173,0-2.346-0.007-3.519,0.003c-0.505,0.004-0.94-0.148-1.334-0.463c-0.689-0.549-1.39-1.083-2.081-1.628
		c-0.177-0.14-0.366-0.203-0.592-0.201c-0.976,0.006-1.953,0.002-2.929,0.002c-0.461,0-0.672,0.213-0.672,0.68
		c0,2.453,0,4.906,0,7.359c0,0.055,0,0.109,0,0.164c0.045-0.042,0.06-0.085,0.074-0.129c0.286-0.907,0.572-1.813,0.857-2.721
		c0.289-0.918,0.876-1.352,1.836-1.352c2.929,0,5.858,0,8.788,0C425.358,295.317,425.428,295.317,425.505,295.317z"/>
</g>
</svg>
