<?xml version="1.0" encoding="utf-8"?>
<!-- Generator: Adobe Illustrator 16.0.0, SVG Export Plug-In . SVG Version: 6.00 Build 0)  -->
<!DOCTYPE svg PUBLIC "-//W3C//DTD SVG 1.1//EN" "http://www.w3.org/Graphics/SVG/1.1/DTD/svg11.dtd">
<svg version="1.1" id="Layer_1" xmlns="http://www.w3.org/2000/svg" xmlns:xlink="http://www.w3.org/1999/xlink" x="0px" y="0px"
	 width="30px" height="21.212px" viewBox="405.945 287.034 30 21.212" enable-background="new 405.945 287.034 30 21.212"
	 xml:space="preserve">
<g>
	<path fill-rule="evenodd" clip-rule="evenodd" d="M412.671,297.26c0-0.146,0-0.292,0-0.438c0.095-0.473,0.403-0.802,0.731-1.128
		c1.982-1.973,3.959-3.95,5.932-5.933c0.323-0.325,0.65-0.627,1.117-0.72c0.146,0,0.292,0,0.438,0
		c0.473,0.095,0.807,0.397,1.128,0.731c0.437,0.454,0.89,0.892,1.332,1.34c0.039,0.039,0.059,0.098,0.087,0.148
		c0.022-0.015,0.044-0.029,0.066-0.044c0-0.055,0-0.109,0-0.164c0-0.469,0.01-0.938-0.004-1.406
		c-0.009-0.288,0.086-0.494,0.359-0.604c0.749,0,1.499,0,2.25,0c0.265,0.129,0.347,0.343,0.345,0.632
		c-0.01,1.462-0.003,2.924-0.007,4.386c0,0.108,0.031,0.183,0.108,0.258c0.474,0.468,0.937,0.947,1.416,1.408
		c0.332,0.319,0.622,0.656,0.7,1.128c0,0.125,0,0.25,0,0.375c-0.012,0.039-0.022,0.078-0.032,0.118
		c-0.162,0.63-0.558,1.02-1.197,1.147c-0.154,0.03-0.317,0.019-0.491,0.026c0,0.063,0,0.125,0,0.187
		c0,1.523,0.002,3.048-0.001,4.571c-0.001,0.793-0.474,1.448-1.201,1.68c-0.098,0.031-0.197,0.057-0.296,0.084
		c-1.126,0-2.25,0-3.376,0c-0.276-0.103-0.376-0.305-0.374-0.594c0.008-1.077,0.003-2.154,0.003-3.23c0-0.061,0-0.12,0-0.183
		c-0.701,0-1.38,0-2.07,0c0,0.073,0,0.136,0,0.197c0,1.071-0.004,2.144,0.003,3.215c0.002,0.289-0.096,0.493-0.374,0.595
		c-1.125,0-2.25,0-3.375,0c-0.013-0.008-0.025-0.021-0.039-0.023c-0.725-0.091-1.476-0.76-1.464-1.803
		c0.016-1.509,0.004-3.018,0.004-4.526c0-0.06,0-0.118,0-0.176c-0.079,0-0.131-0.001-0.183,0.001
		c-0.739,0.019-1.34-0.448-1.506-1.17C412.696,297.315,412.681,297.287,412.671,297.26z M422.643,304.103c0.839,0,1.65,0,2.463,0
		c0.597,0,0.907-0.308,0.907-0.9c0-1.692-0.001-3.385,0.003-5.078c0-0.124-0.033-0.211-0.122-0.299
		c-1.704-1.699-3.404-3.4-5.105-5.102c-0.036-0.036-0.075-0.069-0.117-0.107c-0.038,0.034-0.069,0.059-0.098,0.088
		c-1.72,1.72-3.44,3.438-5.156,5.162c-0.051,0.051-0.085,0.143-0.085,0.216c-0.005,1.718-0.004,3.437-0.003,5.156
		c0,0.541,0.323,0.864,0.863,0.865c0.781,0,1.563,0,2.344,0c0.05,0,0.1-0.006,0.163-0.009c0-0.073,0-0.134,0-0.195
		c0-1.084,0-2.167,0-3.25c0-0.39,0.171-0.563,0.561-0.563c0.937-0.001,1.875,0,2.812,0c0.402,0,0.572,0.169,0.572,0.567
		c0,1.083,0,2.166,0,3.249C422.643,303.964,422.643,304.024,422.643,304.103z M414.146,297.577c0.189,0.006,0.322-0.094,0.448-0.22
		c1.884-1.886,3.77-3.771,5.655-5.656c0.305-0.305,0.537-0.306,0.84-0.002c1.878,1.878,3.756,3.756,5.634,5.634
		c0.045,0.044,0.087,0.091,0.136,0.129c0.297,0.237,0.735,0.101,0.848-0.262c0.08-0.26-0.036-0.448-0.213-0.625
		c-2.123-2.12-4.243-4.241-6.364-6.362c-0.317-0.317-0.6-0.317-0.916-0.001c-2.121,2.121-4.242,4.242-6.362,6.363
		c-0.044,0.044-0.091,0.087-0.128,0.137c-0.134,0.178-0.157,0.372-0.055,0.572C413.766,297.476,413.929,297.573,414.146,297.577z
		 M425.5,293.264c0-1.119,0-2.197,0-3.275c-0.356,0-0.702,0-1.06,0c0,0.722,0,1.434,0.002,2.146c0,0.037,0.02,0.083,0.046,0.11
		C424.816,292.577,425.147,292.908,425.5,293.264z"/>
</g>
</svg>
