<?xml version="1.0" encoding="utf-8"?>
<!-- Generator: Adobe Illustrator 16.0.0, SVG Export Plug-In . SVG Version: 6.00 Build 0)  -->
<!DOCTYPE svg PUBLIC "-//W3C//DTD SVG 1.1//EN" "http://www.w3.org/Graphics/SVG/1.1/DTD/svg11.dtd">
<svg version="1.1" id="Layer_1" xmlns="http://www.w3.org/2000/svg" xmlns:xlink="http://www.w3.org/1999/xlink" x="0px" y="0px"
	 width="30px" height="21.212px" viewBox="405.945 287.034 30 21.212" enable-background="new 405.945 287.034 30 21.212"
	 xml:space="preserve">
<g>
	<path fill-rule="evenodd" clip-rule="evenodd" d="M421.865,289.64c1.619,0,3.225,0,4.844,0c0.015,0.014,0.029,0.021,0.059,0.029
		c0.686,0.131,1.182,0.62,1.284,1.321c0.044,0.277,0.015,0.569,0.015,0.839c0.044,0.029,0.044,0.037,0.059,0.044
		c0.7,0.313,1.036,0.854,1.021,1.62c0,1.379-0.015,2.758,0,4.137c0.015,0.554-0.176,1-0.569,1.394
		c-1.97,1.947-3.925,3.917-5.881,5.888c-0.35,0.335-0.7,0.642-1.211,0.729c-0.131,0-0.263,0-0.394,0
		c-0.511-0.088-0.876-0.409-1.226-0.759c-1.109-1.124-2.218-2.232-3.341-3.356c-0.263-0.248-0.511-0.511-0.773-0.773
		c-0.307-0.292-0.511-0.671-0.467-1.094c0.043-0.365-0.103-0.569-0.336-0.773c-0.117-0.096-0.219-0.197-0.306-0.314
		c-0.103-0.116-0.205-0.248-0.263-0.379c-0.321-0.635-0.175-1.335,0.35-1.875c1.984-1.978,3.969-3.955,5.938-5.939
		C421.018,290.027,421.368,289.72,421.865,289.64z M428.08,295.564c0-0.708,0-1.415,0-2.123c0-0.408-0.189-0.613-0.613-0.613
		c-1.415,0-2.83,0-4.246,0c-0.219-0.007-0.379,0.066-0.54,0.219c-2.043,2.05-4.085,4.093-6.143,6.143
		c-0.277,0.277-0.277,0.569,0,0.861c1.444,1.43,2.889,2.875,4.319,4.319c0.291,0.277,0.583,0.277,0.86,0
		c2.058-2.058,4.101-4.115,6.158-6.158c0.146-0.146,0.219-0.307,0.204-0.503C428.08,296.994,428.08,296.28,428.08,295.564z
		 M415.911,298.359c0.058-0.066,0.087-0.124,0.131-0.168c1.956-1.963,3.925-3.918,5.88-5.888c0.365-0.365,0.788-0.547,1.313-0.54
		c1.196,0.007,2.394,0,3.59,0c0.059,0,0.131,0,0.204,0c0-0.153,0-0.299,0-0.438c0-0.423-0.204-0.62-0.627-0.62
		c-1.401,0-2.816,0-4.218-0.007c-0.233,0-0.408,0.073-0.583,0.241c-2.029,2.043-4.071,4.079-6.1,6.114
		c-0.029,0.022-0.059,0.051-0.073,0.073c-0.204,0.219-0.204,0.518-0.015,0.737C415.575,298.023,415.721,298.177,415.911,298.359z"/>
	<path fill-rule="evenodd" clip-rule="evenodd" d="M425.425,293.894c0.875-0.007,1.59,0.7,1.604,1.576
		c0,0.883-0.715,1.605-1.604,1.605c-0.861,0-1.591-0.723-1.591-1.591C423.834,294.609,424.549,293.894,425.425,293.894z
		 M425.439,294.951c-0.291,0-0.539,0.234-0.539,0.533c0,0.285,0.233,0.525,0.525,0.525c0.291,0.007,0.539-0.233,0.539-0.533
		C425.964,295.185,425.731,294.951,425.439,294.951z"/>
</g>
</svg>
