<?xml version="1.0" encoding="utf-8"?>
<!-- Generator: Adobe Illustrator 16.0.0, SVG Export Plug-In . SVG Version: 6.00 Build 0)  -->
<!DOCTYPE svg PUBLIC "-//W3C//DTD SVG 1.1//EN" "http://www.w3.org/Graphics/SVG/1.1/DTD/svg11.dtd">
<svg version="1.1" id="Layer_1" xmlns="http://www.w3.org/2000/svg" xmlns:xlink="http://www.w3.org/1999/xlink" x="0px" y="0px"
	 width="30px" height="21.212px" viewBox="405.945 287.034 30 21.212" enable-background="new 405.945 287.034 30 21.212"
	 xml:space="preserve">
<g>
	<path fill-rule="evenodd" clip-rule="evenodd" d="M419.508,289.223c0.333,0,0.667,0,1,0c0.045,0.009,0.09,0.021,0.136,0.027
		c0.36,0.053,0.724,0.084,1.079,0.161c5.02,1.084,7.73,6.642,5.5,11.267c-1.613,3.348-5.242,5.125-8.898,4.359
		c-3.161-0.662-5.651-3.248-6.192-6.438c-0.049-0.292-0.081-0.586-0.121-0.879c0-0.333,0-0.667,0-1
		c0.051-0.354,0.089-0.71,0.155-1.062c0.594-3.184,3.254-5.787,6.448-6.312C418.91,289.298,419.21,289.264,419.508,289.223z
		 M415.213,302.374c0.216-0.74,0.573-1.386,1.077-1.95c0.501-0.561,1.104-0.985,1.816-1.29c-0.888-0.62-1.423-1.441-1.549-2.497
		c-0.126-1.061,0.175-2.003,0.906-2.787c1.307-1.401,3.475-1.493,4.875-0.214c0.675,0.615,1.069,1.381,1.133,2.293
		c0.095,1.353-0.458,2.409-1.55,3.205c1.457,0.65,2.416,1.729,2.889,3.243c1.985-1.816,2.856-4.798,1.818-7.6
		c-1.07-2.893-3.836-4.723-6.938-4.612c-2.942,0.105-5.6,2.184-6.444,5.02C412.388,298.07,413.492,300.855,415.213,302.374z
		 M420.005,304.282c1.391-0.011,2.674-0.388,3.848-1.142c0.119-0.076,0.139-0.151,0.108-0.279c-0.485-2.101-2.438-3.43-4.579-3.114
		c-1.641,0.242-2.984,1.507-3.335,3.136c-0.026,0.119,0.001,0.186,0.107,0.253C417.327,303.89,418.61,304.269,420.005,304.282z
		 M420.004,293.674c-1.404,0.003-2.538,1.142-2.536,2.546c0.001,1.406,1.137,2.538,2.542,2.537c1.405-0.001,2.539-1.138,2.537-2.543
		C422.545,294.809,421.405,293.67,420.004,293.674z"/>
</g>
</svg>
